<svg width="31" height="56" viewBox="0 0 31 56" fill="none" xmlns="http://www.w3.org/2000/svg">
<path d="M14.7907 24.9148L12.6102 25.4333C12.7941 24.6555 12.7941 23.8518 12.6102 23.0481L14.7907 23.5926L14.239 21.5444C15.0797 21.7259 15.9203 21.7259 16.7347 21.5444L16.183 23.6185L18.3636 23.1C18.1797 23.8778 18.1797 24.6555 18.3636 25.4333L16.183 24.9148L16.7347 26.963C15.8941 26.8074 15.0534 26.8074 14.239 26.963L14.7907 24.9148Z" fill="white"/>
<path d="M19.9136 45.6037C19.0992 45.9407 17.9432 46.1481 17.1026 46.1481C17.0763 47.1852 17.4441 47.8593 17.7856 48.1185C17.7331 48.2222 17.6543 48.3778 17.4441 48.4296C16.8399 48.5593 16.4721 48.637 16.3932 48.9482C16.5509 48.8963 16.761 48.8963 16.9187 48.9741C16.656 49.1037 16.5509 49.3111 16.5509 49.4667C16.7348 49.3889 16.9187 49.3889 17.0763 49.4667C16.8661 49.5444 16.7348 49.7 16.7085 49.9074C17.1814 49.9074 17.2077 49.9074 17.6805 49.9074C18.1534 49.9074 18.4424 49.7778 18.889 49.7778C19.3356 49.7778 19.6771 49.9593 20.0975 49.9074C20.5178 49.8556 21.1221 49.2852 20.3339 47.5481C20.5178 47.6259 20.7543 47.6519 20.9119 47.6259C20.4916 47.2111 20.2551 46.7185 19.9136 45.6037Z" fill="white"/>
<path d="M10.0619 46.2778C10.3246 46.2778 10.9814 46.0963 11.0865 46.0185C10.7975 45.9148 10.6136 45.6815 10.5873 45.6037C10.7449 45.5778 10.7975 45.5778 10.9551 45.5519C10.9026 44.3593 9.35256 43.2444 9.22121 43.2704C8.69578 43.5815 8.32799 43.8667 7.8551 44.2815C6.93561 45.2926 7.35595 45.8111 6.33138 47.0037C5.98985 47.4444 5.80595 47.7296 5.70087 48.2741C5.96358 48.0407 6.06866 48.1704 6.06866 48.1704C6.04239 48.3519 6.04239 48.4815 6.06866 48.7148C6.14748 48.637 6.27883 48.4815 6.489 48.4296C6.489 48.5074 6.54154 48.7407 6.6729 48.8704C7.01443 48.3259 7.77629 48.1444 8.14409 47.6778C8.48561 47.263 8.72205 46.8482 9.14239 46.7444C9.72036 46.5889 10.0882 46.8482 10.4822 46.563C10.1932 46.4593 10.0882 46.3556 10.0619 46.2778Z" fill="white"/>
<path d="M11.4542 37.1259C11.4017 36.9963 11.428 36.8148 11.5068 36.6852C11.2441 36.7111 10.9025 36.7889 10.6924 36.9185C10.7186 36.763 10.7975 36.6333 10.9288 36.5296C10.6924 36.5296 10.2195 36.6074 9.79916 36.7111C9.74661 36.3222 9.72034 36.1148 9.19492 35.9852C8.90594 35.9074 8.32797 35.8556 8.35424 36.5296C8.27543 36.5296 8.22289 36.5556 8.17034 36.5556C7.96017 35.9593 7.30339 36.2185 7.14577 36.2963C7.09322 36.3222 6.83051 36.4778 7.09322 36.9444C6.43644 37.3593 6.09492 37.6704 5.62204 38.5519C4.57119 39.0444 3.86187 39.3037 4.07204 39.8222C4.51865 40.963 5.07034 41.4296 5.75339 41.4815C6.90933 41.5852 7.19831 42.0259 7.59238 42.5704C7.69746 42.4926 7.75 42.337 7.77627 42.1296C7.82882 42.1556 8.01272 42.4148 8.14407 42.7C8.24916 42.5704 8.35424 42.3111 8.35424 42.2593C10.85 42.7519 11.6644 45.1889 11.6644 46.0704C11.6907 46.8741 12.0059 47.8074 12.2949 48.1445C12.1636 48.3519 11.9534 48.5593 11.6644 48.6111C10.8763 48.7667 10.1407 48.9222 9.98305 49.3889C10.1407 49.337 10.4297 49.337 10.4822 49.4407C10.272 49.5185 10.1144 49.6222 10.1144 49.8815C10.2983 49.8037 10.5873 49.8556 10.6661 49.9593C10.4822 50.0111 10.3509 50.0889 10.2983 50.2963C10.7186 50.2963 10.9288 50.2963 11.4542 50.2963C11.9797 50.2963 12.1373 50.1926 12.5314 50.1667C12.9254 50.1407 13.2144 50.2963 13.4509 50.2963C13.6873 50.2963 14.0814 50.2963 14.3178 49.6482C14.8432 48.0407 15.4475 47.5482 15.5263 47.3926C15.3686 47.4185 15.211 47.3926 15.1322 47.3667C15.3424 47.263 15.7102 46.6407 15.789 46.4074C15.7102 46.4333 15.5263 46.4333 15.4475 46.4074C15.5525 46.3296 15.8415 45.6556 15.8415 45.5C15.6314 45.5519 15.4737 45.5 15.4737 45.5C15.7627 45.0074 15.9992 44.3852 16.0517 44.2556C16.078 44.6963 16.0517 44.9815 15.9992 45.2667C16.1305 45.2926 16.2093 45.2926 16.3407 45.2926C16.3407 45.3963 16.3407 45.4482 16.3144 45.5519C17.6805 45.5519 19.1517 45.2407 20.2025 44.7741C20.9381 46.9519 21.2797 47.4445 22.7509 48.3778C22.6458 48.637 22.2254 48.6889 21.989 48.7667C21.6737 48.8704 21.3585 49.0519 21.2534 49.337C21.4373 49.2593 21.5949 49.337 21.7 49.4148C21.5949 49.4407 21.4636 49.5963 21.411 49.8815C21.6212 49.8037 21.7525 49.8296 21.9364 49.9074C21.8051 49.9852 21.7 50.0889 21.6737 50.2963C22.1203 50.2963 22.6458 50.2963 23.0661 50.2963C23.4864 50.2963 23.7229 49.9852 24.1432 49.8815C24.5636 49.7778 24.7212 49.8815 25.2203 49.6741C25.7195 49.4667 25.667 48.8445 25.4042 48.2222C25.1153 47.5741 24.8788 47.4185 24.7737 46.8222C24.9051 46.7963 25.0102 46.8222 25.1678 46.9C24.7737 45.837 24.5636 44.3593 24.8788 42.9333C25.0627 42.8556 25.3254 42.9593 25.4042 43.037C25.4305 42.6482 25.378 42.2852 25.1941 41.9741C25.2992 41.9482 25.4042 41.9482 25.5093 42.0259C25.5619 38.7074 24.3009 37.3333 18.9153 37.3333C17.339 37.3333 15.2373 37.3333 12.0847 37.3333C12.0847 37.1 12.0847 37.0741 12.1373 36.9704C11.8746 36.9704 11.6644 37.0222 11.4542 37.1259Z" fill="white"/>
<path d="M18.1271 30.3333L17.0763 29.5556V29.2963H13.5034C13.1356 29.2963 12.3475 29.3481 12.3475 30.0741C12.3475 30.1778 12.3475 36.037 12.3475 36.037C12.3475 36.6333 13.0831 36.8148 13.661 36.8148H18.3898V30.3333H18.1271ZM13.6348 30.3333C12.8466 30.3333 12.978 29.8148 13.372 29.8148H16.6559L17.3915 30.3333H13.6348ZM16.8136 33.4444H15.7627V34.4815L16.2882 34.7407V35.2593L15.7627 35V35.7778H15.2373V34.7407L14.7119 34.4815V33.963L15.2373 34.2222V33.4444H14.1865V32.9259H15.2373V32.4074H14.7119V31.8889H15.2373V31.3704H15.7627V31.8889H16.2882V32.4074H15.7627V32.9259H16.8136V33.4444Z" fill="white"/>
<path d="M15.5 5.7037C16.0078 5.7037 16.4195 5.29744 16.4195 4.79629C16.4195 4.29515 16.0078 3.88889 15.5 3.88889C14.9922 3.88889 14.5805 4.29515 14.5805 4.79629C14.5805 5.29744 14.9922 5.7037 15.5 5.7037Z" fill="white"/>
<path d="M15.0796 2.04815L13.7924 2.38519C13.9237 1.91852 13.9237 1.37407 13.7924 0.907407L15.0796 1.2963L14.7381 0C15.2373 0.12963 15.7627 0.12963 16.2356 0L15.8678 1.2963L17.2076 1.01111C17.0763 1.47778 17.0763 2.02222 17.2076 2.46296L15.8678 2.07407L16.2356 3.37037C15.7364 3.26667 15.211 3.26667 14.7381 3.37037L15.0796 2.04815Z" fill="white"/>
<path d="M13.3983 6.74074C13.3983 6.74074 12.1373 5.44444 10.0093 5.44444C7.5661 5.44444 5.77966 6.92222 5.77966 9.33333C5.77966 10.9667 6.22627 12.0815 6.83051 12.963C7.48729 12.9111 7.82882 12.937 8.27543 13.0926C8.80085 12.3148 9.8517 11.9259 10.7712 11.9259C11.8746 11.9259 12.3475 12.3148 12.8729 12.7037C13.3195 12.1333 13.6873 11.8741 14.1864 11.6667C13.4771 10.5259 13.1356 8.81481 13.3983 6.74074Z" fill="white"/>
<path d="M16.8135 11.6667C17.2864 11.8741 17.7593 12.237 18.1271 12.7037C18.6 12.3667 19.1254 11.9259 20.2288 11.9259C21.1483 11.9259 22.1466 12.2111 22.7246 13.0926C23.1974 12.9111 23.539 12.8593 24.1695 12.963C24.7737 12.0815 25.2203 10.9667 25.2203 9.33333C25.2203 6.92222 23.4339 5.44444 20.9907 5.44444C18.8627 5.44444 17.6017 6.74074 17.6017 6.74074C17.8644 8.81481 17.5229 10.5259 16.8135 11.6667Z" fill="white"/>
<path d="M22.0678 14.5185C21.8051 13.7407 21.1483 12.963 20.2288 12.963C19.178 12.963 18.3898 13.7407 17.8644 14.5185C17.7593 14 16.8136 12.4444 15.5 12.4444C14.1865 12.4444 13.267 14 13.1356 14.5185C12.6102 13.7407 11.822 12.963 10.7712 12.963C9.85171 12.963 9.19493 13.7407 8.93222 14.5185C8.14408 14 7.09323 13.7407 6.56781 14C7.09323 14.5185 7.61866 15.8148 7.61866 16.5926C9.61527 16.5926 15.5 16.5926 15.5 16.5926C15.5 16.5926 22.8559 16.5926 23.3814 16.5926C23.3814 15.8148 23.9068 14.5185 24.4322 14C23.9068 13.7407 22.8559 14 22.0678 14.5185Z" fill="white"/>
<path d="M16.4195 6.22223C15.8941 6.22223 15.1059 6.22223 14.5805 6.22223C13.9237 8.81482 14.9746 11.4074 15.5 11.4074C16.0254 11.4074 17.0763 8.81482 16.4195 6.22223Z" fill="white"/>
<path d="M24.4322 52.8889C19.3093 52.8889 17.0763 54.1852 15.5 56C13.8975 54.1852 11.6644 52.8889 6.5678 52.8889C2.62712 52.8889 0 51.9037 0 47.1852C0 44.7222 0 17.8889 0 17.8889H31C31 17.8889 31 31.163 31 47.1852C31 51.9037 28.3729 52.8889 24.4322 52.8889ZM29.6864 47.4444V19.1852H1.31356V47.4444C1.31356 49.9593 2.33814 50.6074 2.62712 50.8148C3.36271 51.3593 4.43983 51.5926 6.30508 51.5926C10.3771 51.5926 13.3983 52.4481 15.5 54.1852C17.6017 52.4481 20.6229 51.5926 24.6949 51.5926C26.5602 51.5926 27.6373 51.3593 28.3729 50.8148C28.6619 50.5815 29.6864 49.9593 29.6864 47.4444Z" fill="white"/>
</svg>
