<svg width="18" height="20" fill="none" xmlns="http://www.w3.org/2000/svg"><path d="M16.145 15.306c.565.322 1.034.78 1.359 1.328a3.53 3.53 0 01.496 1.8V20H0v-1.567c0-.63.17-1.25.496-1.799a3.712 3.712 0 011.358-1.328l3.601-2.05c.282-.162.516-.39.679-.665.162-.274.248-.584.247-.9v-.145c.801.46 1.689.728 2.619.728.93 0 1.817-.268 2.618-.728v.146c0 .315.085.625.247.9.163.273.397.502.68.663l3.6 2.051zM13.737 4.988C13.737 8 11.617 10.91 9 10.91S4.263 8 4.263 4.99C4.263 1.974 6.383 0 9 0s4.737 1.977 4.737 4.988z" fill="#fff"/></svg>