<svg width="20" height="20" fill="none" xmlns="http://www.w3.org/2000/svg"><path fill-rule="evenodd" clip-rule="evenodd" d="M14.114 2.286l-3 3H5.143c-.994 0-1.354.103-1.717.297-.363.195-.648.48-.843.843-.194.363-.297.723-.297 1.717v6.714c0 .994.103 1.354.297 1.717.195.363.48.648.843.843.363.194.723.297 1.717.297h8c.993 0 1.354-.103 1.717-.297a2.03 2.03 0 00.842-.843c.195-.363.298-.723.298-1.717V7.6l1.715-1.715v8.6c0 1.719-.179 2.342-.515 2.97a3.504 3.504 0 01-1.458 1.459c-.629.336-1.252.515-2.972.515H5.516c-1.72 0-2.343-.18-2.971-.515a3.504 3.504 0 01-1.458-1.458C.75 16.827.57 16.204.57 14.484V7.231c0-1.72.18-2.343.516-2.972a3.505 3.505 0 011.458-1.458c.628-.336 1.252-.515 2.971-.515h8.598zM18.856.898l.242.243c.435.435.436 1.14 0 1.575L8.693 13.126l-2.55.731.731-2.55L17.28.899a1.114 1.114 0 011.576 0z" fill="#0061D9"/></svg>