<svg width="64" height="64" viewBox="0 0 64 64" fill="none" xmlns="http://www.w3.org/2000/svg">
<path fill-rule="evenodd" clip-rule="evenodd" d="M43.8229 21.4913C42.8223 20.6181 41.3834 20.638 40.5578 20.8916C41.0985 20.2308 42.3587 19.6886 42.7294 19.6229C43.0119 19.7284 43.8229 20.5576 43.8229 21.4913ZM47.0176 17.8754C46.3595 14.3715 38.1795 16.6935 34.0598 15.2051C33.9811 16.2267 35.3281 17.8633 36.6168 18.4687C34.4143 20.3718 32.4369 24.2059 32.0374 28.8899C31.6398 24.2059 29.6622 20.3718 27.4597 18.4689C28.7481 17.8635 30.0965 16.2269 30.0164 15.2056C25.897 16.6939 17.7167 14.3721 17.0575 17.876C16.9189 18.6179 17.2773 19.7477 17.6644 20.0728C17.7337 19.8378 18.0954 19.0689 19.2357 18.8966C24.9988 18.0298 29.8105 26.8715 25.4671 30.4463C25.4009 30.5012 25.4384 30.6012 25.5278 30.6012H38.5498C38.638 30.6012 38.6756 30.501 38.6102 30.4465C34.2657 26.8719 39.0774 18.0302 44.8407 18.8971C45.9817 19.0693 46.3425 19.838 46.412 20.073C46.7991 19.7479 47.1575 18.6181 47.0178 17.8762L47.0176 17.8754ZM48.4194 9.83397C48.3157 9.50291 51.6951 9.49457 51.6951 11.6002C51.6951 13.011 49.6736 13.6792 49.6736 15.1436C49.6736 15.8255 50.4107 16.3255 50.6369 16.3255C50.1161 13.9749 52.2689 15.2051 52.8504 15.6445C51.6951 12.4833 54.2955 12.5031 54.0395 11.0536C53.8614 10.0409 51.6009 10.3467 50.783 9.83397C49.3313 8.92449 47.6139 5.38479 46.4822 8.9245C48.592 10.8742 47.3643 13.7443 44.6858 13.7443C44.6858 13.7443 44.671 14.165 44.6955 14.1983C47.8902 14.0428 49.0038 11.7054 48.4194 9.83397ZM11.1479 15.6445C11.7292 15.2051 13.8818 13.9749 13.3623 16.3255C13.5874 16.3255 14.3245 15.8255 14.3245 15.1436C14.3245 13.6792 12.303 13.011 12.303 11.6002C12.303 9.49457 15.6822 9.50291 15.5787 9.83397C14.9951 11.7056 16.1087 14.043 19.3034 14.1983C19.3271 14.165 19.3123 13.7441 19.3123 13.7441C16.6349 13.7441 15.4072 10.8742 17.5159 8.92427C16.3842 5.38479 14.6668 8.92428 13.2151 9.83375C12.397 10.3467 10.1365 10.0407 9.95858 11.0536C9.70368 12.5035 12.3032 12.4837 11.1481 15.6449L11.1479 15.6445ZM20.2189 21.4913C21.2204 20.6181 22.6597 20.638 23.484 20.8916C22.9455 20.2308 21.6831 19.6886 21.3133 19.6229C21.0308 19.7284 20.2186 20.5576 20.2186 21.4913H20.2189ZM33.5573 1.89145L31.9993 0L30.4408 1.89145L31.9988 3.88174L33.5576 1.89145H33.5573ZM42.4533 7.61037L41.3455 6.26637L40.238 7.61037L41.3452 8.92406L42.4535 7.61037H42.4533ZM51.442 46.4634L50.0375 44.9836L48.6326 46.4632L50.0375 47.7615L51.4422 46.4632L51.442 46.4634ZM23.7609 7.61037L22.6531 6.26637L21.5459 7.61037L22.6533 8.92406L23.7612 7.61037H23.7609ZM20.5868 14.1986H24.7203C28.1955 14.1986 29.759 12.0751 30.2315 10.2338H33.7677C34.2404 12.0751 35.8031 14.1983 39.2794 14.1983H43.4129C43.4129 14.1983 44.1359 13.2219 44.3173 12.7384C44.9701 10.9985 44.1359 10.1868 42.9188 10.1868L41.3452 11.6063L39.7722 10.1872C38.5551 10.1872 37.7209 10.9985 38.3737 12.7386C38.4571 12.9609 38.6566 13.2878 38.8455 13.5751C37.3788 13.3746 35.5065 12.375 35.096 10.2338C35.096 10.2338 36.1796 8.52028 36.4519 7.82676C37.4289 5.33273 36.1809 4.31342 34.3558 4.31342L31.9995 7.0704L29.6432 4.31342C27.8181 4.31342 26.5703 5.33273 27.5484 7.82676C27.8192 8.52028 28.9041 10.234 28.9041 10.234C28.4925 12.375 26.6206 13.3745 25.1539 13.5753C25.3437 13.2876 25.5423 12.9609 25.6253 12.7384C26.277 10.9985 25.445 10.187 24.227 10.187L22.6535 11.6066L21.08 10.1874C19.8622 10.1874 19.0302 10.9987 19.6819 12.7388C19.8633 13.2221 20.5874 14.1988 20.5874 14.1988L20.5868 14.1986ZM63.3206 26.9523C62.5228 27.3543 57.8422 29.5368 51.8465 28.7295C51.9087 28.4449 51.9614 28.1582 52.0045 27.8701C55.995 27.395 59.2387 26.7212 61.3059 25.5767C63.6622 24.2711 64.6926 21.1545 63.5033 18.8362C63.4724 18.7778 63.387 18.7673 63.3444 18.8165C62.6925 19.5634 58.5946 24.0009 52.1378 25.3805C52.1214 25.0475 52.0908 24.7153 52.0462 24.3849C55.1822 22.6147 58.2436 20.575 59.702 18.7099C61.9053 15.8901 61.7027 12.2931 59.6057 10.4592C59.584 10.4405 59.5552 10.4321 59.5267 10.4361C59.4983 10.4401 59.473 10.4561 59.4572 10.48C58.7938 11.5697 52.5836 21.5607 45.7656 25.8743C45.6825 25.9273 45.5986 25.9791 45.5141 26.0299C45.3185 26.1481 45.2971 26.4011 45.4633 26.5512C46.2498 27.2603 46.7382 28.2471 46.7382 29.3429C46.7382 31.2481 45.2631 32.8325 43.3131 33.1763C42.3222 33.3674 40.8922 33.3118 39.5179 32.8595C39.4561 32.8397 39.3921 32.8804 39.3921 32.9421V38.9754C39.3921 39.0725 39.5404 39.0966 39.5753 39.0039C40.4108 36.801 42.911 36.3331 44.0045 36.3331C44.398 38.6872 45.1009 40.637 46.0139 41.6867C47.5009 43.3921 49.929 43.3681 50.9816 42.1891C50.9989 42.1695 51.0063 42.1432 51.0017 42.1175C50.9971 42.0919 50.981 42.0697 50.958 42.0573C50.3394 41.7036 46.8002 39.5404 46.0918 35.9959C46.3699 35.9019 46.6417 35.7906 46.9057 35.6626C48.0482 37.5446 49.7111 39.2208 51.0498 39.8611C53.2987 40.9347 55.3573 40.4125 56.2702 38.8407C56.3034 38.7854 56.2627 38.7164 56.1957 38.7102C54.8046 38.5997 50.5359 37.3818 48.7183 34.4148C48.9285 34.2248 49.1292 34.0246 49.3199 33.8151C51.2222 35.2566 53.9111 36.5308 55.8364 36.7909C58.0892 37.0958 60.6417 36.3801 60.7035 33.7725C60.7046 33.7204 60.6576 33.6776 60.6019 33.6807C59.8008 33.729 54.4988 33.9586 50.7206 31.7998C50.8519 31.5514 50.9743 31.2984 51.0876 31.0414C51.0876 31.0414 56.7964 32.3848 59.5014 31.9399C62.1894 31.4984 63.7638 29.5037 63.4599 27.0219C63.451 26.9604 63.3787 26.9237 63.3208 26.953L63.3206 26.9523ZM12.9112 31.0405C13.0248 31.2976 13.1475 31.5506 13.2791 31.7991C9.50197 33.9568 4.20211 33.729 3.39748 33.68C3.34098 33.6769 3.29375 33.7217 3.29508 33.7729C3.35797 36.3796 5.90959 37.0951 8.16238 36.7902C10.0868 36.5301 12.777 35.256 14.6787 33.8147C14.8696 34.0239 15.0703 34.2241 15.2803 34.4144C13.4618 37.3812 9.19366 38.5993 7.80288 38.7098C7.73557 38.7164 7.69629 38.7851 7.72829 38.8405C8.64128 40.4123 10.6999 40.9345 12.9498 39.8609C14.2872 39.2206 15.9501 37.5444 17.0921 35.6624C17.3564 35.79 17.6284 35.9013 17.9065 35.9957C17.1981 39.5402 13.6589 41.7029 13.0403 42.0573C13.0174 42.0698 13.0015 42.092 12.9969 42.1176C12.9923 42.1432 12.9996 42.1694 13.0167 42.1891C14.0694 43.3679 16.4983 43.3918 17.9853 41.6865C18.8983 40.6368 19.6003 38.6869 19.9935 36.3329C21.0882 36.3329 23.5875 36.8008 24.4228 39.0035C24.4587 39.0964 24.6071 39.0723 24.6071 38.9749V32.9419C24.6071 32.8804 24.542 32.8395 24.4802 32.8593C23.1064 33.3118 21.6759 33.3667 20.6861 33.1756C18.7352 32.8323 17.2599 31.2479 17.2599 29.3429C17.2599 28.2475 17.7498 27.2596 18.5346 26.5507C18.7023 26.4014 18.6796 26.1483 18.4856 26.0301C18.4003 25.9794 18.3157 25.9276 18.2318 25.8748C11.4178 21.5636 5.2111 11.5793 4.54197 10.4827C4.52608 10.4582 4.50031 10.4417 4.47129 10.4374C4.44228 10.4332 4.41285 10.4417 4.39058 10.4607C2.29668 12.2957 2.0932 15.8912 4.29679 18.7104C5.7551 20.5754 8.81651 22.6152 11.9514 24.3853C11.9072 24.7157 11.877 25.0477 11.8609 25.3805C5.4095 24.0022 1.31461 19.5722 0.656516 18.82C0.612378 18.7686 0.525207 18.7789 0.495414 18.8376C-0.691895 21.1574 0.338722 24.2713 2.6926 25.5769C4.76001 26.7214 8.00393 27.3952 11.9942 27.8703C12.0373 28.1585 12.09 28.4451 12.152 28.7297C6.1625 29.536 1.48432 27.3585 0.680129 26.9534C0.620543 26.9231 0.548156 26.9607 0.540652 27.0233C0.237646 29.5048 1.81094 31.4975 4.49894 31.9393C7.20305 32.3841 12.9116 31.0408 12.9116 31.0408L12.9112 31.0405ZM50.0378 49.6672L47.9575 48.0381C47.1273 48.5301 46.5173 49.3113 46.2803 50.2272C45.029 50.4014 41.618 49.6472 41.9497 49.147C45.6882 43.9127 42.8287 40.7961 39.3919 40.9696V44.4845C39.3919 45.6137 38.4021 46.5286 37.1828 46.5286H34.8095C33.1071 46.5286 31.9988 48.232 31.9988 48.232C31.9988 48.232 30.8905 46.5284 29.1881 46.5284H26.8151C25.5946 46.5284 24.6071 45.6135 24.6071 44.4845V40.9696C21.1703 40.7961 18.3086 43.9125 22.0482 49.1468C22.377 49.6419 18.8707 50.4345 17.2261 50.2342C16.7927 49.7869 16.1677 49.5049 15.4679 49.5049C15.1703 49.505 14.8751 49.5578 14.5961 49.6608C14.5961 49.6608 8.13347 43.5698 8.01518 43.5102L8.06815 43.3872C8.4367 42.7018 7.87328 41.9549 7.51709 42.0076C7.93088 41.5134 7.95008 39.3506 5.65447 38.8502C5.72178 39.2847 5.75598 40.1713 5.75598 40.1713C5.75598 40.1713 3.98429 39.2179 3.09447 40.0408C2.31279 40.962 3.39748 42.6331 3.39748 42.6331C3.39748 42.6331 2.49089 42.655 2.04399 42.6172C2.70098 44.8294 4.90479 44.6728 5.38148 44.2363C5.35058 44.5878 6.14727 45.0893 6.82258 44.6873L7.11919 44.5445C7.17149 44.6141 13.4658 50.5338 13.4658 50.5338C13.1767 50.9609 13.0392 51.4851 13.1341 52.0439C13.2835 52.9171 14.014 53.641 14.9475 53.829C15.6067 53.9608 16.2264 53.8334 16.7234 53.5439L18.3896 55.0832C18.5374 55.2172 18.7383 55.3007 18.962 55.2849C19.3697 55.2576 19.6749 54.929 19.644 54.5518C19.6307 54.3815 19.5433 54.2355 19.4228 54.1245C19.3964 54.0955 17.7257 52.5516 17.7257 52.5516C19.1039 51.5901 21.6717 50.9124 23.8026 50.9124C24.1769 50.9124 24.353 50.5969 24.2242 50.2878C23.2586 47.9768 25.3342 46.3024 27.4815 47.6653C28.4181 48.2595 29.3695 49.4302 30.0863 51.3833C26.5635 52.2324 22.14 54.5718 21.2451 57.1253C20.9004 58.1113 22.0387 59.4553 23.4211 59.7257C23.4455 59.731 23.4711 59.7264 23.4921 59.7129C23.5131 59.6994 23.5278 59.678 23.533 59.6536C24.2551 55.8415 28.3736 53.0009 30.5165 52.5184C30.6239 52.8056 30.5888 52.7126 30.6965 52.9986C28.3625 54.0975 26.0991 56.4147 25.453 59.1699C25.1561 60.4315 26.5696 61.5688 27.7364 61.8801C27.7951 61.8955 27.8527 61.855 27.856 61.7988C28.0778 58.3147 29.6233 55.3556 31.0079 54.0096C31.0459 54.2729 31.0743 54.5374 31.0933 54.8027C31.0933 54.8027 29.6756 58.7345 29.6756 61.6033C29.6756 62.9381 31.6684 63.8697 31.9626 64C32.3305 63.8697 34.3218 62.9381 34.3218 61.6033C34.3218 58.7343 32.9045 54.8024 32.9045 54.8024C32.9239 54.5372 32.9527 54.2726 32.991 54.0094C34.3748 55.356 35.9211 58.3136 36.1421 61.7977C36.1447 61.8254 36.1594 61.8506 36.1824 61.8665C36.2054 61.8824 36.2342 61.8873 36.2612 61.8801C37.4296 61.5688 38.8417 60.4315 38.5462 59.1699C37.8987 56.4151 35.6364 54.0975 33.3027 52.9986C33.4093 52.7126 33.3739 52.8053 33.4819 52.5182C35.6259 53.0006 39.7428 55.8413 40.4651 59.6534C40.4761 59.704 40.5262 59.7361 40.577 59.7253C41.9585 59.455 43.0986 58.1106 42.7519 57.1249C41.8592 54.5713 37.4346 52.232 33.9111 51.3829C34.6292 49.43 35.5808 48.2591 36.5174 47.6648C38.6634 46.3019 40.7392 47.9761 39.7737 50.2874C39.6448 50.5965 39.8196 50.9119 40.1952 50.9119C42.6058 50.9119 45.5756 51.7785 46.7508 52.9411C47.5018 54.0628 48.8893 54.7803 50.4553 54.6267C52.2345 54.4532 53.6853 53.1228 53.8857 51.4778C54.0607 50.0367 53.3119 48.7428 52.1184 48.0376L50.0373 49.667L50.0378 49.6672ZM34.7065 39.1683C35.4475 38.8945 36.6093 39.116 36.5697 40.181C36.5603 40.4226 36.9003 40.4226 36.9251 40.1759C37.1469 38.5811 36.0644 38.1219 34.9313 38.3087C34.7905 37.7603 34.6753 37.281 34.5443 36.806C34.4397 36.4216 34.4012 35.6997 34.8481 35.6997C35.0891 35.6997 34.9923 36.3711 34.9695 36.6604C34.9497 36.9141 35.0412 37.0677 35.2483 37.0749C35.3771 37.0802 35.5382 36.9163 35.6345 36.8076C36.2828 36.0776 36.4334 34.9476 35.6737 34.4025C35.0382 33.9449 33.4465 34.2854 33.0091 34.9372C32.9429 34.6916 32.6274 34.2863 32.476 34.1099C32.3288 33.9375 32.2906 33.8195 32.494 33.6684C32.59 33.595 32.8803 33.3076 32.8803 33.0111C32.8803 32.8358 32.7434 32.512 32.3096 32.512C31.967 32.512 31.5864 32.7479 31.5864 33.2743C31.5864 33.3913 31.615 33.5166 31.6907 33.6514C31.4745 33.6159 30.8865 33.6304 30.5846 33.7046L34.7585 45.106C35.9534 44.519 36.8293 43.5895 36.8293 42.592C36.8293 41.7418 35.5713 42.0239 34.9605 42.6871C34.7641 41.6091 34.5893 40.6138 34.3982 39.6217C34.3461 39.348 34.4858 39.2498 34.7065 39.1674V39.1683ZM28.8043 31.423L29.6814 33.8483C28.9306 34.0262 27.723 34.571 27.723 35.2927C27.723 36.2536 29.4311 36.8792 30.4185 36.8041C30.3695 37.0233 30.426 37.2186 30.5796 37.3972C30.2212 37.3972 29.545 37.5633 29.323 37.8014C28.7993 37.3159 27.9801 37.1391 27.5906 37.4345C27.1993 37.7324 27.1876 38.2368 27.5961 38.8071C27.8808 39.2019 27.9876 39.5914 27.6676 40.0487C28.8578 40.0487 28.4195 38.5083 28.8858 38.5083C28.8246 38.8071 28.8619 39.1527 28.9974 39.536C29.087 39.7908 29.087 39.9719 28.9334 40.217C28.5494 40.8282 27.9523 42.2315 28.033 43.5008C27.6429 43.4986 27.4445 43.4037 27.5819 42.8729C27.6331 42.6757 27.5107 42.5346 27.3485 42.778C27.1693 43.0465 27.0827 43.5052 27.0827 43.7011C27.0827 44.8312 28.4356 45.0588 28.9515 44.8197C30.4449 46.2587 33.3786 45.8746 34.3606 45.392L29.1958 31.2857C29.0904 31.0192 28.7117 31.1467 28.8043 31.4235V31.423ZM28.6256 43.043C28.5188 42.4624 29.3305 41.4244 30.3631 40.4226C30.1433 41.0755 30.2799 42.2003 30.7109 42.5878C29.9619 42.5878 29.0723 42.7277 28.6254 43.043H28.6256Z" fill="#3B4256"/>
</svg>
