<svg width="20" height="20" viewBox="0 0 20 20" fill="none" xmlns="http://www.w3.org/2000/svg">
<path fill-rule="evenodd" clip-rule="evenodd" d="M14.1143 2.28606L11.1145 5.28582H5.14261C4.14921 5.28582 3.78897 5.38925 3.4258 5.58348C3.06262 5.77771 2.7776 6.06273 2.58337 6.42591C2.38915 6.78908 2.28571 7.14931 2.28571 8.14272V14.8575C2.28571 15.8509 2.38915 16.2111 2.58337 16.5743C2.7776 16.9375 3.06262 17.2225 3.4258 17.4167C3.78897 17.611 4.14921 17.7144 5.14261 17.7144H13.1431C14.1365 17.7144 14.4967 17.611 14.8599 17.4167C15.2231 17.2225 15.5081 16.9375 15.7023 16.5743C15.8966 16.2111 16 15.8509 16 14.8575V7.6001L17.715 5.88508V14.4843C17.715 16.2036 17.536 16.8271 17.1998 17.4557C16.8637 18.0843 16.3704 18.5776 15.7418 18.9137C15.1132 19.2499 14.4897 19.4289 12.7704 19.4289H5.51606C3.7967 19.4289 3.17322 19.2499 2.54465 18.9137C1.91608 18.5776 1.42277 18.0843 1.08661 17.4557C0.750447 16.8271 0.571426 16.2036 0.571426 14.4843V7.23069C0.571426 5.51134 0.750447 4.88786 1.08661 4.25929C1.42277 3.63071 1.91608 3.13741 2.54465 2.80124C3.17322 2.46508 3.7967 2.28606 5.51606 2.28606H14.1143ZM18.856 0.898036L19.0983 1.14061C19.5334 1.57571 19.5335 2.28113 19.0984 2.71631L8.69275 13.1259L6.14286 13.8572L6.87447 11.3076L17.2802 0.898036C17.7152 0.462805 18.4208 0.462683 18.856 0.897764L18.8561 0.8979L18.856 0.898036Z" fill="#0061D9"/>
</svg>
