<svg width="16" height="20" viewBox="0 0 16 20" fill="none" xmlns="http://www.w3.org/2000/svg">
<path fill-rule="evenodd" clip-rule="evenodd" d="M7 2.08502V0.999999C7 0.447714 7.44772 0 8 0C8.55229 0 9 0.447715 9 1V2.08502C10.897 2.38702 12.3401 3.51801 12.5271 4.91199L12.8689 7.15997C13.2119 9.41302 14.0291 11.581 15.2729 13.535L15.894 14.524C15.957 14.633 16 14.744 16 14.857C16 16.041 12.418 17 8 17C3.58105 17 0 16.041 0 14.857C0 14.744 0.0419922 14.633 0.10498 14.525L0.726074 13.535C1.97095 11.581 2.78711 9.41302 3.12988 7.15997L3.47192 4.91199C3.65991 3.51801 5.10205 2.38702 7 2.08502ZM6.00708 17.924C6.98706 17.992 7.75293 18 8 18C8.11841 18 8.35693 17.9982 8.68164 17.9887C9.03247 17.9785 9.48364 17.9593 9.99194 17.924C9.99243 17.9355 9.99414 17.9466 9.99585 17.9577C9.9978 17.9708 10 17.9839 10 17.998C10 19.102 9.104 19.998 8 19.998C6.896 19.998 6 19.102 6 17.998C6 17.9838 6.00195 17.9705 6.00366 17.9573C6.00513 17.9463 6.00659 17.9354 6.00708 17.924Z" fill="#FF9500"/>
</svg>
