<svg width="31" height="56" fill="none" xmlns="http://www.w3.org/2000/svg"><path d="M14.79 24.915l-2.18.518a5.225 5.225 0 000-2.385l2.18.545-.551-2.049c.84.182 1.681.182 2.496 0l-.552 2.075 2.18-.519a5.003 5.003 0 000 2.333l-2.18-.518.552 2.048a6.73 6.73 0 00-2.496 0l.552-2.048zm5.124 20.689c-.815.337-1.97.544-2.811.544-.027 1.037.341 1.711.683 1.97-.053.104-.132.26-.342.312-.604.13-.972.207-1.05.518a.737.737 0 01.525.026c-.263.13-.368.337-.368.493a.62.62 0 01.525 0 .531.531 0 00-.367.44h.971c.473 0 .762-.13 1.209-.13.447 0 .788.182 1.209.13.42-.051 1.024-.622.236-2.359.184.078.42.104.578.078-.42-.415-.657-.907-.998-2.022zm-9.852.674c.263 0 .92-.182 1.024-.26-.289-.103-.472-.337-.499-.414.158-.026.21-.026.368-.052-.052-1.193-1.602-2.308-1.734-2.282a8.422 8.422 0 00-1.366 1.011c-.92 1.012-.5 1.53-1.524 2.723-.341.44-.525.726-.63 1.27.263-.233.368-.104.368-.104a1.88 1.88 0 000 .545c.078-.078.21-.234.42-.285 0 .077.053.31.184.44.341-.544 1.103-.726 1.471-1.192.342-.415.578-.83.998-.934.578-.155.946.104 1.34-.181-.289-.104-.394-.207-.42-.285z" fill="#fff"/><path d="M11.454 37.126a.528.528 0 01.053-.44c-.263.025-.604.103-.815.233a.613.613 0 01.237-.39c-.237 0-.71.078-1.13.182-.052-.389-.079-.596-.604-.726-.29-.078-.867-.13-.84.545-.08 0-.132.026-.185.026-.21-.597-.867-.337-1.024-.26-.053.026-.315.182-.053.648-.657.415-.998.726-1.471 1.608-1.05.492-1.76.752-1.55 1.27.447 1.141.998 1.608 1.681 1.66 1.156.103 1.445.544 1.84 1.088.104-.077.157-.233.183-.44.053.026.237.285.368.57.105-.13.21-.389.21-.44 2.496.492 3.31 2.929 3.31 3.81.027.804.342 1.737.63 2.075-.13.207-.34.414-.63.466-.788.156-1.523.311-1.68.778.157-.052.446-.052.498.052-.21.078-.368.181-.368.44.184-.077.473-.025.552.078-.184.052-.315.13-.368.337h1.156c.526 0 .683-.103 1.077-.13.394-.025.683.13.92.13.236 0 .63 0 .867-.648.525-1.607 1.13-2.1 1.208-2.255a.907.907 0 01-.394-.026c.21-.104.578-.726.657-.96a.76.76 0 01-.341 0c.104-.077.393-.751.393-.907-.21.052-.367 0-.367 0 .289-.493.525-1.115.578-1.244.026.44 0 .725-.053 1.01.132.027.21.027.342.027 0 .103 0 .155-.027.259 1.366 0 2.838-.311 3.889-.778.735 2.178 1.077 2.67 2.548 3.604-.105.259-.526.31-.762.389-.315.103-.63.285-.736.57.184-.078.342 0 .447.078-.105.026-.236.181-.289.467.21-.078.341-.052.525.025a.488.488 0 00-.262.39h1.392c.42 0 .657-.312 1.077-.415.42-.104.578 0 1.077-.208.5-.207.447-.83.184-1.452-.289-.648-.525-.803-.63-1.4.131-.026.236 0 .394.078-.394-1.063-.604-2.54-.29-3.967.185-.077.447.026.526.104.026-.389-.026-.752-.21-1.063a.351.351 0 01.315.052c.053-3.319-1.208-4.693-6.594-4.693h-6.83c0-.233 0-.259.052-.363a1.47 1.47 0 00-.683.156z" fill="#fff"/><path d="M18.127 30.333l-1.05-.777v-.26h-3.574c-.367 0-1.155.052-1.155.778v5.963c0 .596.735.778 1.313.778h4.729v-6.482h-.263zm-4.492 0c-.788 0-.657-.518-.263-.518h3.284l.736.518h-3.757zm3.179 3.111h-1.051v1.037l.525.26v.518L15.763 35v.778h-.526V34.74l-.525-.26v-.518l.525.26v-.779h-1.05v-.518h1.05v-.519h-.525v-.518h.525v-.519h.526v.519h.525v.518h-.525v.519h1.05v.518zM15.5 5.704c.508 0 .92-.407.92-.908a.914.914 0 00-.92-.907.914.914 0 00-.92.907c0 .501.412.908.92.908zm-.42-3.656l-1.288.337a2.821 2.821 0 000-1.478l1.288.39L14.738 0c.5.13 1.025.13 1.498 0l-.368 1.296 1.34-.285a2.724 2.724 0 000 1.452l-1.34-.389.368 1.296a3.642 3.642 0 00-1.498 0l.342-1.322zM13.398 6.74s-1.26-1.296-3.389-1.296c-2.443 0-4.23 1.478-4.23 3.89 0 1.633.447 2.748 1.052 3.629.656-.052.998-.026 1.444.13.526-.778 1.577-1.167 2.496-1.167 1.104 0 1.576.389 2.102.778.447-.57.814-.83 1.313-1.037-.709-1.141-1.05-2.852-.788-4.926zm3.416 4.927c.472.207.945.57 1.313 1.037.473-.337.998-.778 2.102-.778.92 0 1.918.285 2.496 1.167.472-.182.814-.234 1.444-.13.605-.881 1.051-1.996 1.051-3.63 0-2.41-1.786-3.889-4.23-3.889-2.127 0-3.388 1.297-3.388 1.297.262 2.074-.08 3.785-.788 4.926z" fill="#fff"/><path d="M22.068 14.518c-.263-.777-.92-1.555-1.84-1.555-1.05 0-1.838.778-2.364 1.556-.105-.519-1.05-2.075-2.364-2.075-1.313 0-2.233 1.556-2.364 2.074-.526-.777-1.314-1.555-2.365-1.555-.92 0-1.576.778-1.839 1.556C8.144 14 7.093 13.74 6.568 14c.525.518 1.05 1.815 1.05 2.593h15.763c0-.778.526-2.075 1.051-2.593-.525-.26-1.576 0-2.364.518zM16.42 6.222h-1.84c-.656 2.593.395 5.185.92 5.185s1.576-2.592.92-5.185zm8.012 46.667c-5.123 0-7.356 1.296-8.932 3.111-1.602-1.815-3.836-3.111-8.932-3.111-3.94 0-6.568-.985-6.568-5.704V17.89h31v29.296c0 4.719-2.627 5.704-6.568 5.704zm5.254-5.445V19.185H1.314v28.26c0 2.514 1.024 3.162 1.313 3.37.736.544 1.813.778 3.678.778 4.072 0 7.093.855 9.195 2.592 2.102-1.737 5.123-2.592 9.195-2.592 1.865 0 2.942-.234 3.678-.778.289-.233 1.313-.856 1.313-3.37z" fill="#fff"/></svg>