<svg width="16" height="20" fill="none" xmlns="http://www.w3.org/2000/svg"><path fill-rule="evenodd" clip-rule="evenodd" d="M7 2.085V1a1 1 0 012 0v1.085c1.897.302 3.34 1.433 3.527 2.827l.342 2.248a16.493 16.493 0 002.404 6.375l.621.989c.063.109.106.22.106.333C16 16.041 12.418 17 8 17c-4.419 0-8-.959-8-2.143 0-.113.042-.224.105-.332l.621-.99A16.472 16.472 0 003.13 7.16l.342-2.248C3.66 3.518 5.102 2.387 7 2.085zm-.993 15.839C6.987 17.992 7.753 18 8 18a32.886 32.886 0 001.992-.076c0 .012.002.023.004.034a.258.258 0 01.004.04 2 2 0 01-4 0c0-.014.002-.027.004-.04l.003-.034z" fill="#FF9500"/></svg>