<svg width="64" height="64" fill="none" xmlns="http://www.w3.org/2000/svg"><path fill-rule="evenodd" clip-rule="evenodd" d="M43.823 21.491c-1-.873-2.44-.853-3.265-.6.54-.66 1.8-1.202 2.171-1.268.283.105 1.094.935 1.094 1.868zm3.195-3.616c-.659-3.504-8.839-1.181-12.958-2.67-.079 1.022 1.268 2.658 2.557 3.264-2.203 1.903-4.18 5.737-4.58 10.42-.397-4.683-2.375-8.517-4.577-10.42 1.288-.606 2.636-2.242 2.556-3.263-4.119 1.488-12.3-.834-12.958 2.67-.14.742.22 1.872.606 2.197.07-.235.431-1.004 1.572-1.176 5.763-.867 10.575 7.975 6.231 11.55-.066.054-.029.154.06.154H38.55c.088 0 .126-.1.06-.154-4.344-3.575.467-12.417 6.23-11.55 1.142.172 1.502.941 1.572 1.176.387-.325.745-1.455.606-2.197zm1.401-8.041c-.103-.331 3.276-.34 3.276 1.766 0 1.411-2.021 2.08-2.021 3.544 0 .681.737 1.182.963 1.182-.52-2.351 1.632-1.12 2.213-.681-1.155-3.162 1.445-3.142 1.19-4.591-.179-1.013-2.44-.707-3.257-1.22-1.452-.91-3.17-4.45-4.3-.91 2.109 1.95.881 4.82-1.797 4.82 0 0-.015.421.01.454 3.194-.155 4.308-2.493 3.723-4.364zm-37.271 5.81c.581-.439 2.734-1.67 2.214.682.225 0 .963-.5.963-1.182 0-1.465-2.022-2.133-2.022-3.544 0-2.105 3.38-2.097 3.276-1.766-.584 1.872.53 4.209 3.724 4.364.024-.033.01-.454.01-.454-2.678 0-3.906-2.87-1.797-4.82-1.132-3.54-2.85 0-4.3.91-.819.513-3.08.207-3.257 1.22-.255 1.45 2.344 1.43 1.19 4.59h-.001zm9.07 5.847c1.002-.873 2.442-.853 3.266-.6-.539-.66-1.8-1.202-2.17-1.268-.283.105-1.095.935-1.095 1.868zm13.34-19.6L31.998 0 30.44 1.891l1.558 1.99 1.559-1.99zm8.895 5.72l-1.108-1.345-1.107 1.344 1.107 1.314 1.108-1.314zm8.989 38.852l-1.404-1.48-1.405 1.48 1.404 1.298 1.405-1.298zM23.761 7.61l-1.108-1.344-1.107 1.344 1.107 1.314 1.108-1.314zm-3.174 6.59h4.133c3.476 0 5.039-2.124 5.512-3.965h3.536c.472 1.841 2.035 3.964 5.511 3.964h4.134s.723-.976.904-1.46c.653-1.74-.181-2.551-1.398-2.551l-1.574 1.42-1.573-1.42c-1.217 0-2.051.812-1.398 2.552.083.222.283.549.471.836-1.466-.2-3.338-1.2-3.749-3.341 0 0 1.084-1.714 1.356-2.407.977-2.494-.271-3.514-2.096-3.514L31.999 7.07l-2.356-2.757c-1.825 0-3.073 1.02-2.095 3.514.271.693 1.356 2.407 1.356 2.407-.412 2.141-2.283 3.14-3.75 3.341.19-.287.388-.614.471-.837.652-1.74-.18-2.551-1.398-2.551l-1.573 1.42-1.574-1.42c-1.218 0-2.05.812-1.398 2.552.181.483.905 1.46.905 1.46zM63.32 26.952c-.798.402-5.479 2.585-11.474 1.777.062-.284.114-.57.157-.859 3.991-.475 7.235-1.149 9.302-2.293 2.356-1.306 3.387-4.423 2.197-6.74a.098.098 0 00-.159-.02c-.651.746-4.75 5.184-11.206 6.564a11.771 11.771 0 00-.092-.996c3.136-1.77 6.198-3.81 7.656-5.675 2.203-2.82 2-6.417-.096-8.25a.1.1 0 00-.149.02c-.663 1.09-6.873 11.08-13.691 15.394-.084.053-.167.105-.252.156a.32.32 0 00-.05.521c.786.71 1.274 1.696 1.274 2.792 0 1.905-1.475 3.49-3.425 3.833-.99.191-2.42.136-3.795-.317-.062-.02-.126.021-.126.083v6.033c0 .097.148.122.183.029.836-2.203 3.336-2.67 4.43-2.67.393 2.353 1.096 4.303 2.009 5.353 1.487 1.705 3.915 1.681 4.968.502a.085.085 0 00-.024-.132c-.619-.353-4.158-2.517-4.866-6.061.278-.094.55-.205.814-.333 1.142 1.882 2.805 3.558 4.144 4.198 2.249 1.074 4.307.552 5.22-1.02.033-.056-.007-.125-.074-.13-1.391-.111-5.66-1.33-7.478-4.296.21-.19.411-.39.602-.6 1.902 1.442 4.591 2.716 6.516 2.976 2.253.305 4.806-.41 4.867-3.018.002-.053-.045-.095-.101-.092-.801.048-6.103.278-9.881-1.881.13-.249.253-.502.367-.759 0 0 5.708 1.344 8.413.899 2.688-.442 4.263-2.436 3.959-4.918-.009-.062-.081-.098-.14-.069zM12.91 31.04c.114.258.237.51.368.76-3.777 2.157-9.077 1.929-9.882 1.88-.056-.003-.103.042-.102.093.063 2.607 2.615 3.322 4.867 3.017 1.925-.26 4.615-1.534 6.517-2.975.19.209.391.41.601.6-1.818 2.966-6.086 4.184-7.477 4.295-.067.006-.107.075-.075.13.913 1.572 2.972 2.094 5.222 1.02 1.337-.64 3-2.316 4.142-4.198.264.128.536.24.815.334-.709 3.544-4.248 5.707-4.867 6.061a.086.086 0 00-.023.132c1.052 1.179 3.481 1.203 4.968-.502.913-1.05 1.615-3 2.009-5.354 1.094 0 3.593.468 4.429 2.67.036.093.184.07.184-.028v-6.033c0-.062-.065-.102-.127-.083-1.374.453-2.804.508-3.794.317-1.95-.344-3.426-1.928-3.426-3.833 0-1.096.49-2.083 1.275-2.792a.32.32 0 00-.05-.52c-.085-.052-.17-.103-.253-.156-6.814-4.311-13.02-14.296-13.69-15.392a.102.102 0 00-.151-.022c-2.094 1.835-2.298 5.43-.094 8.25 1.458 1.864 4.52 3.904 7.654 5.674-.044.33-.074.663-.09.995C5.409 24.003 1.315 19.573.657 18.82c-.045-.051-.132-.041-.162.018-1.187 2.32-.156 5.433 2.198 6.739 2.067 1.144 5.31 1.818 9.301 2.293.043.288.096.575.158.86-5.99.806-10.668-1.372-11.472-1.777-.06-.03-.132.008-.14.07-.302 2.482 1.27 4.474 3.959 4.916 2.704.445 8.413-.898 8.413-.898zm37.127 18.627l-2.08-1.629c-.83.492-1.44 1.273-1.678 2.19-1.251.173-4.662-.58-4.33-1.081 3.738-5.234.879-8.35-2.558-8.177v3.514c0 1.13-.99 2.045-2.21 2.045H34.81c-1.702 0-2.81 1.703-2.81 1.703s-1.108-1.704-2.81-1.704h-2.374c-1.22 0-2.208-.914-2.208-2.044V40.97c-3.437-.174-6.298 2.943-2.559 8.177.329.495-3.177 1.288-4.822 1.087a2.439 2.439 0 00-1.758-.73 2.52 2.52 0 00-.872.157s-6.463-6.091-6.58-6.15l.052-.124c.369-.685-.195-1.432-.55-1.38.413-.494.432-2.656-1.864-3.157.068.435.102 1.321.102 1.321s-1.772-.953-2.662-.13c-.781.921.303 2.592.303 2.592s-.906.022-1.353-.016c.657 2.212 2.86 2.056 3.337 1.62-.03.35.766.852 1.442.45l.296-.142c.052.07 6.347 5.989 6.347 5.989a2.05 2.05 0 00-.332 1.51c.15.873.88 1.597 1.813 1.785a2.52 2.52 0 001.776-.285l1.667 1.54a.768.768 0 00.572.2c.408-.026.713-.355.682-.732a.653.653 0 00-.221-.428 536.84 536.84 0 00-1.697-1.572c1.378-.962 3.946-1.64 6.077-1.64.374 0 .55-.315.421-.624-.965-2.311 1.11-3.986 3.258-2.623.936.595 1.887 1.765 2.604 3.718-3.522.85-7.946 3.189-8.84 5.742-.346.986.793 2.33 2.175 2.6a.094.094 0 00.112-.071c.722-3.813 4.84-6.653 6.983-7.136l.18.48c-2.334 1.1-4.597 3.417-5.243 6.172-.297 1.261 1.117 2.399 2.283 2.71.06.015.117-.025.12-.081.222-3.484 1.767-6.443 3.152-7.79.038.264.066.528.085.794 0 0-1.417 3.931-1.417 6.8 0 1.335 1.992 2.267 2.287 2.397.367-.13 2.359-1.062 2.359-2.397 0-2.869-1.418-6.8-1.418-6.8.02-.266.049-.53.087-.794 1.384 1.347 2.93 4.305 3.151 7.789a.094.094 0 00.12.082c1.168-.311 2.58-1.449 2.284-2.71-.647-2.755-2.91-5.073-5.243-6.171.106-.286.07-.194.179-.48 2.144.482 6.26 3.322 6.983 7.134a.094.094 0 00.112.072c1.382-.27 2.522-1.614 2.175-2.6-.893-2.554-5.317-4.893-8.84-5.742.717-1.953 1.669-3.124 2.605-3.718 2.146-1.363 4.222.311 3.257 2.622-.13.31.046.625.421.625 2.41 0 5.38.867 6.556 2.03.75 1.12 2.138 1.838 3.704 1.685 1.78-.174 3.23-1.504 3.43-3.15.176-1.44-.573-2.734-1.767-3.44l-2.08 1.63zm-15.33-10.499c.74-.273 1.902-.052 1.863 1.013-.01.242.33.242.355-.005.222-1.595-.86-2.054-1.994-1.867-.14-.549-.256-1.028-.387-1.503-.104-.384-.143-1.106.304-1.106.241 0 .144.671.121.96-.02.254.072.408.28.415.128.005.29-.159.386-.267.648-.73.798-1.86.039-2.405-.636-.458-2.227-.118-2.665.534-.066-.245-.382-.65-.533-.827-.147-.172-.185-.29.018-.442.096-.073.386-.36.386-.657 0-.175-.137-.499-.57-.499-.343 0-.724.236-.724.762 0 .117.029.243.105.377a3.881 3.881 0 00-1.106.054l4.173 11.401c1.195-.587 2.071-1.517 2.071-2.514 0-.85-1.258-.568-1.868.095-.197-1.078-.372-2.073-.563-3.065-.052-.274.088-.372.308-.455v.001zm-5.903-7.745l.877 2.425c-.75.178-1.958.723-1.958 1.445 0 .96 1.708 1.586 2.696 1.511a.65.65 0 00.16.593c-.358 0-1.034.166-1.256.404-.524-.485-1.343-.662-1.732-.367-.392.298-.403.803.005 1.373.285.395.392.784.072 1.242 1.19 0 .752-1.54 1.218-1.54-.061.298-.024.644.111 1.027.09.255.09.436-.064.681-.384.611-.98 2.014-.9 3.284-.39-.002-.588-.097-.451-.628.051-.197-.071-.338-.233-.095-.18.269-.266.727-.266.923 0 1.13 1.353 1.358 1.869 1.119 1.493 1.439 4.427 1.055 5.409.572l-5.165-14.106c-.106-.267-.484-.14-.392.137zm-.178 11.62c-.107-.58.704-1.619 1.737-2.62-.22.652-.083 1.777.348 2.165-.75 0-1.639.14-2.086.455z" fill="#3B4256"/></svg>